<svg width="24" height="24" viewBox="0 0 24 24" fill="none" xmlns="http://www.w3.org/2000/svg">
<g id="atom/icons/functional/chevron-left">
<path id="Page 1" fill-rule="evenodd" clip-rule="evenodd" d="M6.50112 12.0654L11 16.6061C11.5118 17.1381 12.0378 17.866 11.5415 18.4145C11.0453 18.963 10.2282 18.9765 9.7164 18.4446L4.39218 12.9107C3.86926 12.3671 3.86926 11.4678 4.39218 10.9242L9.7164 5.39028C10.2282 4.85837 11.0453 4.87185 11.5415 5.42038C12.0378 5.96891 12.0118 6.57423 11.5 7.10614L6.50112 12.0654Z" fill="white"/>
<path id="Vector 49" d="M5.99988 11.1064C5.44759 11.1064 4.99988 11.5542 4.99988 12.1064C4.99988 12.6587 5.44759 13.1064 5.99988 13.1064V11.1064ZM18.9999 13.1064C19.5522 13.1064 19.9999 12.6587 19.9999 12.1064C19.9999 11.5542 19.5522 11.1064 18.9999 11.1064V13.1064ZM5.99988 13.1064H18.9999V11.1064H5.99988V13.1064Z" fill="white"/>
</g>
</svg>
